<?xml version="1.0" encoding="utf-8"?>
<!-- Generator: Adobe Illustrator 25.4.1, SVG Export Plug-In . SVG Version: 6.00 Build 0)  -->
<svg version="1.1" id="레이어_1" xmlns="http://www.w3.org/2000/svg" xmlns:xlink="http://www.w3.org/1999/xlink" x="0px"
	 y="0px" viewBox="0 0 50 50" style="enable-background:new 0 0 50 50;" xml:space="preserve">
<polygon points="43.19,42.27 6.9,42.27 6.9,16.4 6.11,16.4 6.11,42.91 43.98,42.91 43.98,16.4 43.19,16.4 "/>
<rect x="8.64" y="17.22" width="0.51" height="23.53"/>
<rect x="41.19" y="17.22" width="0.51" height="23.53"/>
<g>
	<path d="M21.86,23.89c0.77,0,0.82-0.59,2.4-0.27c0.6,0.12,0.67,0.71,0.1,0.67c-0.84-0.11-7.96,0.06-8.34,0.07
		c-0.5,0.05-0.57,0.84-2.32-0.34c-0.18-0.12-0.18-0.35,0.22-0.26c0.56,0.15,2.82,0.16,4.95,0.15V22.2
		c-1.55-0.09-2.74-0.93-2.74-2.23c0-1.39,1.34-2.23,3.03-2.23c1.71,0,3.04,0.83,3.04,2.23c0,1.28-1.16,2.13-2.73,2.23v1.7
		C20.38,23.9,21.22,23.89,21.86,23.89z M14.6,16.84c-0.17-0.11-0.18-0.35,0.23-0.27c1.03,0.22,3.99,0.07,6.19,0.07
		c0.71,0,0.87-0.54,2.31-0.31c0.64,0.1,0.67,0.76,0.12,0.71c-0.84-0.1-6.38,0.1-6.68,0.11C16.35,17.23,16.2,17.9,14.6,16.84z
		 M19.16,18.21c-1.39,0-2.4,0.76-2.4,1.77c0,0.98,1.02,1.76,2.4,1.76c1.42,0,2.41-0.79,2.41-1.76
		C21.57,18.98,20.58,18.21,19.16,18.21z M18.16,15.57c-0.31-0.01-0.56-0.13-1.05-0.45c-0.26-0.16-0.01-0.32,0.31-0.24
		c0.64,0.13,2.48,0.16,3.55,0.16c0.51-0.04,0.43,0.4,0.06,0.5C20.38,15.63,18.57,15.59,18.16,15.57z"/>
	<path d="M34.92,23.33c0,1.68-0.04,2.86-0.43,2.92c-0.23,0.04-0.18-1.22-0.18-2.12v-2.76c-1.19,0.57-4.18,1.64-6.26,1.86
		c-0.34,0.04-1.16-0.02-1.16-0.89v-4.98c0-0.67-0.33-0.81-0.89-1.09c-0.23-0.11,0.42-0.38,1.37,0.09c0.38,0.17,0.13,0.44,0.13,1
		v4.56c0,0.6,0.15,0.75,0.7,0.68c2.45-0.28,4.95-1.1,6.11-1.55v-5.07c0-0.65-0.34-0.78-0.89-1.06c-0.23-0.12,0.4-0.38,1.37,0.09
		c0.38,0.17,0.13,0.44,0.13,0.98v3.77c0.38-0.05,0.62-0.13,0.73-0.21c0.17-0.13,0.82-0.13,1.23-0.04c0.48,0.1,0.39,0.56-0.11,0.57
		l-1.86,0.02V23.33z"/>
	<path d="M13.69,38.27c-0.18-0.12-0.18-0.34,0.22-0.26c0.86,0.22,5.7,0.1,7.95,0.09c0.77,0,0.82-0.59,2.4-0.27
		c0.6,0.12,0.67,0.71,0.1,0.67c-0.84-0.11-7.96,0.1-8.34,0.11C15.51,38.66,15.44,39.44,13.69,38.27z M22.96,30.98l-0.37,3.64
		c0.59-0.05,0.64,0.43,0.1,0.43c-1.44,0-4.81,0.06-6.18,0.06c-0.06,0.33-0.18,0.44-0.35,0.45c-0.24,0.01-0.24-0.32-0.24-0.92
		l-0.12-3.4c-0.02-0.62-0.88-0.67-0.88-0.84c0-0.13,0.62-0.28,1.38-0.04c0.05,0.01,0.13,0.05,0.21,0.05c1.55,0,5.28-0.05,5.47-0.05
		c0.2,0,0.32-0.53,1.01-0.04C23.45,30.65,23.03,30.73,22.96,30.98z M16.43,30.84c0,0.18,0.1,3.68,0.1,3.86l5.59-0.06l0.11-3.86
		L16.43,30.84z"/>
	<path d="M31.09,35.86l-2.1,0.02c-0.45,0-1.2-0.05-1.2-0.98v-1.28c0-0.61-0.99-0.57-0.99-0.78c0-0.18,1.03-0.32,1.8,0.01
		c1.24,0,5.27-0.06,5.89-0.06l0.02-2.25c-0.66,0.01-5.03,0.13-5.11,0.15c-0.51,0.05-0.62,0.65-2.25-0.26
		c-0.21-0.11-0.18-0.34,0.24-0.28c0.94,0.15,5.69,0.17,6.79-0.01c0.42-0.07,0.43-0.42,0.94-0.16c0.75,0.39,0.21,0.5,0.13,0.79
		l-0.31,2.01c0.35,0,0.54,0.42-0.13,0.42c-0.66,0-4.84,0.06-6.4,0.06v1.58c0,0.4,0.07,0.65,0.67,0.65c0.75,0,4.22-0.05,4.4-0.07
		c0.72-0.11,0.32-0.37,1.53-0.24c0.54,0.04,0.75,0.66,0.28,0.66l-3.61,0.04v2.45c0.9-0.01,1.75-0.02,2.38-0.02
		c0.77,0,0.82-0.59,2.4-0.27c0.6,0.12,0.67,0.71,0.1,0.67c-0.84-0.11-7.96,0.1-8.34,0.11c-0.5,0.05-0.58,0.83-2.32-0.34
		c-0.18-0.12-0.18-0.34,0.22-0.26c0.56,0.15,2.82,0.15,4.95,0.12V35.86z"/>
</g>
<g>
	<polygon points="6.9,14.6 6.9,7.53 43.19,7.53 43.19,14.6 43.98,14.6 43.98,6.75 6.11,6.75 6.11,14.6 	"/>
	<path d="M12.53,6.75c-0.04,4.34-3.19,7.85-7.06,7.85H4.31v0.76h1.53c4.07,0,7.37-3.71,7.37-8.28V6.75H12.53z"/>
	<path d="M37.47,6.75c0.04,4.34,3.19,7.85,7.06,7.85h1.15v0.76h-1.53c-4.07,0-7.37-3.71-7.37-8.28V6.75H37.47z"/>
</g>
</svg>
